<svg xmlns="http://www.w3.org/2000/svg" viewBox="0 0 100 100" preserveAspectRatio="xMidYMid" width="229" height="229" style="shape-rendering: auto; display: block; background: transparent;" xmlns:xlink="http://www.w3.org/1999/xlink"><g><g transform="rotate(0 50 50)">
  <rect fill="#ffffff" height="17" width="1" ry="8.5" rx="0.5" y="18.5" x="49.5">
    <animate repeatCount="indefinite" begin="-1.9166666666666667s" dur="2s" keyTimes="0;1" values="1;0" attributeName="opacity"></animate>
  </rect>
</g><g transform="rotate(15 50 50)">
  <rect fill="#ffffff" height="17" width="1" ry="8.5" rx="0.5" y="18.5" x="49.5">
    <animate repeatCount="indefinite" begin="-1.8333333333333333s" dur="2s" keyTimes="0;1" values="1;0" attributeName="opacity"></animate>
  </rect>
</g><g transform="rotate(30 50 50)">
  <rect fill="#ffffff" height="17" width="1" ry="8.5" rx="0.5" y="18.5" x="49.5">
    <animate repeatCount="indefinite" begin="-1.75s" dur="2s" keyTimes="0;1" values="1;0" attributeName="opacity"></animate>
  </rect>
</g><g transform="rotate(45 50 50)">
  <rect fill="#ffffff" height="17" width="1" ry="8.5" rx="0.5" y="18.5" x="49.5">
    <animate repeatCount="indefinite" begin="-1.6666666666666667s" dur="2s" keyTimes="0;1" values="1;0" attributeName="opacity"></animate>
  </rect>
</g><g transform="rotate(60 50 50)">
  <rect fill="#ffffff" height="17" width="1" ry="8.5" rx="0.5" y="18.5" x="49.5">
    <animate repeatCount="indefinite" begin="-1.5833333333333333s" dur="2s" keyTimes="0;1" values="1;0" attributeName="opacity"></animate>
  </rect>
</g><g transform="rotate(75 50 50)">
  <rect fill="#ffffff" height="17" width="1" ry="8.5" rx="0.5" y="18.5" x="49.5">
    <animate repeatCount="indefinite" begin="-1.5s" dur="2s" keyTimes="0;1" values="1;0" attributeName="opacity"></animate>
  </rect>
</g><g transform="rotate(90 50 50)">
  <rect fill="#ffffff" height="17" width="1" ry="8.5" rx="0.5" y="18.5" x="49.5">
    <animate repeatCount="indefinite" begin="-1.4166666666666667s" dur="2s" keyTimes="0;1" values="1;0" attributeName="opacity"></animate>
  </rect>
</g><g transform="rotate(105 50 50)">
  <rect fill="#ffffff" height="17" width="1" ry="8.5" rx="0.5" y="18.5" x="49.5">
    <animate repeatCount="indefinite" begin="-1.3333333333333333s" dur="2s" keyTimes="0;1" values="1;0" attributeName="opacity"></animate>
  </rect>
</g><g transform="rotate(120 50 50)">
  <rect fill="#ffffff" height="17" width="1" ry="8.5" rx="0.5" y="18.5" x="49.5">
    <animate repeatCount="indefinite" begin="-1.25s" dur="2s" keyTimes="0;1" values="1;0" attributeName="opacity"></animate>
  </rect>
</g><g transform="rotate(135 50 50)">
  <rect fill="#ffffff" height="17" width="1" ry="8.5" rx="0.5" y="18.5" x="49.5">
    <animate repeatCount="indefinite" begin="-1.1666666666666667s" dur="2s" keyTimes="0;1" values="1;0" attributeName="opacity"></animate>
  </rect>
</g><g transform="rotate(150 50 50)">
  <rect fill="#ffffff" height="17" width="1" ry="8.5" rx="0.5" y="18.5" x="49.5">
    <animate repeatCount="indefinite" begin="-1.0833333333333333s" dur="2s" keyTimes="0;1" values="1;0" attributeName="opacity"></animate>
  </rect>
</g><g transform="rotate(165 50 50)">
  <rect fill="#ffffff" height="17" width="1" ry="8.5" rx="0.5" y="18.5" x="49.5">
    <animate repeatCount="indefinite" begin="-1s" dur="2s" keyTimes="0;1" values="1;0" attributeName="opacity"></animate>
  </rect>
</g><g transform="rotate(180 50 50)">
  <rect fill="#ffffff" height="17" width="1" ry="8.5" rx="0.5" y="18.5" x="49.5">
    <animate repeatCount="indefinite" begin="-0.9166666666666666s" dur="2s" keyTimes="0;1" values="1;0" attributeName="opacity"></animate>
  </rect>
</g><g transform="rotate(195 50 50)">
  <rect fill="#ffffff" height="17" width="1" ry="8.5" rx="0.5" y="18.5" x="49.5">
    <animate repeatCount="indefinite" begin="-0.8333333333333334s" dur="2s" keyTimes="0;1" values="1;0" attributeName="opacity"></animate>
  </rect>
</g><g transform="rotate(210 50 50)">
  <rect fill="#ffffff" height="17" width="1" ry="8.5" rx="0.5" y="18.5" x="49.5">
    <animate repeatCount="indefinite" begin="-0.75s" dur="2s" keyTimes="0;1" values="1;0" attributeName="opacity"></animate>
  </rect>
</g><g transform="rotate(225 50 50)">
  <rect fill="#ffffff" height="17" width="1" ry="8.5" rx="0.5" y="18.5" x="49.5">
    <animate repeatCount="indefinite" begin="-0.6666666666666666s" dur="2s" keyTimes="0;1" values="1;0" attributeName="opacity"></animate>
  </rect>
</g><g transform="rotate(240 50 50)">
  <rect fill="#ffffff" height="17" width="1" ry="8.5" rx="0.5" y="18.5" x="49.5">
    <animate repeatCount="indefinite" begin="-0.5833333333333334s" dur="2s" keyTimes="0;1" values="1;0" attributeName="opacity"></animate>
  </rect>
</g><g transform="rotate(255 50 50)">
  <rect fill="#ffffff" height="17" width="1" ry="8.5" rx="0.5" y="18.5" x="49.5">
    <animate repeatCount="indefinite" begin="-0.5s" dur="2s" keyTimes="0;1" values="1;0" attributeName="opacity"></animate>
  </rect>
</g><g transform="rotate(270 50 50)">
  <rect fill="#ffffff" height="17" width="1" ry="8.5" rx="0.5" y="18.5" x="49.5">
    <animate repeatCount="indefinite" begin="-0.4166666666666667s" dur="2s" keyTimes="0;1" values="1;0" attributeName="opacity"></animate>
  </rect>
</g><g transform="rotate(285 50 50)">
  <rect fill="#ffffff" height="17" width="1" ry="8.5" rx="0.5" y="18.5" x="49.5">
    <animate repeatCount="indefinite" begin="-0.3333333333333333s" dur="2s" keyTimes="0;1" values="1;0" attributeName="opacity"></animate>
  </rect>
</g><g transform="rotate(300 50 50)">
  <rect fill="#ffffff" height="17" width="1" ry="8.5" rx="0.5" y="18.5" x="49.5">
    <animate repeatCount="indefinite" begin="-0.25s" dur="2s" keyTimes="0;1" values="1;0" attributeName="opacity"></animate>
  </rect>
</g><g transform="rotate(315 50 50)">
  <rect fill="#ffffff" height="17" width="1" ry="8.5" rx="0.5" y="18.5" x="49.5">
    <animate repeatCount="indefinite" begin="-0.16666666666666666s" dur="2s" keyTimes="0;1" values="1;0" attributeName="opacity"></animate>
  </rect>
</g><g transform="rotate(330 50 50)">
  <rect fill="#ffffff" height="17" width="1" ry="8.5" rx="0.5" y="18.5" x="49.5">
    <animate repeatCount="indefinite" begin="-0.08333333333333333s" dur="2s" keyTimes="0;1" values="1;0" attributeName="opacity"></animate>
  </rect>
</g><g transform="rotate(345 50 50)">
  <rect fill="#ffffff" height="17" width="1" ry="8.5" rx="0.5" y="18.5" x="49.5">
    <animate repeatCount="indefinite" begin="0s" dur="2s" keyTimes="0;1" values="1;0" attributeName="opacity"></animate>
  </rect>
</g><g></g></g><!-- [ldio] generated by https://loading.io --></svg>